<svg width="48" height="48" viewBox="0 0 48 48" fill="none" xmlns="http://www.w3.org/2000/svg" xmlns:xlink="http://www.w3.org/1999/xlink">
<path d="M33.407,27.673L31.909,27.596L33.407,27.673ZM33.95,17.053L35.448,17.13L33.95,17.053ZM17.073,15.556L17.501,16.994L17.073,15.556ZM17.501,16.994C22.921,15.381 27.177,15.095 32.171,16.533L33.001,13.65C27.324,12.016 22.467,12.386 16.645,14.119L17.501,16.994ZM32.452,16.977L31.909,27.596L34.905,27.749L35.448,17.13L32.452,16.977ZM18.179,27.868L17.228,17.424L14.241,17.696L15.191,28.14L18.179,27.868ZM25.306,34.122C21.644,34.267 18.511,31.518 18.179,27.868L15.191,28.14C15.668,33.38 20.167,37.328 25.425,37.12L25.306,34.122ZM31.909,27.596C31.727,31.152 28.864,33.982 25.306,34.122L25.425,37.12C30.533,36.918 34.643,32.854 34.905,27.749L31.909,27.596ZM32.171,16.533C32.318,16.576 32.464,16.737 32.452,16.977L35.448,17.13C35.527,15.585 34.571,14.102 33.001,13.65L32.171,16.533ZM16.645,14.119C15.069,14.587 14.096,16.107 14.241,17.696L17.228,17.424C17.209,17.21 17.34,17.042 17.501,16.994L16.645,14.119Z" transform="rotate(84.143 24.811 25.019)" fill="#FFFFFF"/>
<path d="M26.212,20.102L24.966,19.265C24.608,19.799 24.629,20.502 25.02,21.013C25.41,21.523 26.083,21.729 26.692,21.523L26.212,20.102ZM44.645,19.629L44.137,21.04C44.751,21.261 45.439,21.059 45.836,20.54C46.233,20.021 46.248,19.305 45.874,18.77L44.645,19.629ZM27.457,20.938L35.026,9.671L32.536,7.998L24.966,19.265L27.457,20.938ZM35.851,9.663L43.415,20.488L45.874,18.77L38.31,7.945L35.851,9.663ZM45.152,18.217C38.298,15.751 32.777,16.3 25.731,18.681L26.692,21.523C33.312,19.286 38.105,18.87 44.137,21.04L45.152,18.217ZM35.026,9.671C35.222,9.379 35.649,9.375 35.851,9.663L38.31,7.945C36.901,5.929 33.907,5.957 32.536,7.998L35.026,9.671Z" transform="rotate(84.143 35.428 13.257)" fill="#FFFFFF"/>
<path d="M24.612,40.234L23.952,41.581L24.612,40.234ZM24.193,38.67L22.885,37.936L24.193,38.67ZM29.074,35.061L27.7,35.662L29.074,35.061ZM25.278,33.114L23.778,33.097L25.278,33.114ZM27.7,35.662L30.708,42.535L33.456,41.332L30.448,34.46L27.7,35.662ZM31.386,41.885L25.273,38.887L23.952,41.581L30.065,44.579L31.386,41.885ZM25.501,39.405C26.446,37.723 26.746,35.853 26.778,33.131L23.778,33.097C23.749,35.647 23.461,36.911 22.885,37.936L25.501,39.405ZM25.273,38.887C25.425,38.962 25.503,39.094 25.527,39.187C25.548,39.27 25.535,39.344 25.501,39.405L22.885,37.936C22.231,39.1 22.471,40.854 23.952,41.581L25.273,38.887ZM30.708,42.535C30.521,42.108 30.968,41.68 31.386,41.885L30.065,44.579C32.156,45.604 34.39,43.466 33.456,41.332L30.708,42.535ZM25.614,34.221C26.526,34.268 27.334,34.826 27.7,35.662L30.448,34.46C29.627,32.582 27.815,31.33 25.768,31.225L25.614,34.221ZM25.768,31.225C24.678,31.169 23.79,32.037 23.778,33.097L26.778,33.131C26.771,33.744 26.257,34.254 25.614,34.221L25.768,31.225Z" transform="rotate(84.143 28.342 38.568)" fill="#FFFFFF"/>
<path d="M10.52,20.71L12.997,27.042L15.791,25.949L13.314,19.617L10.52,20.71ZM13.732,26.439L7,22.132L5.383,24.659L12.115,28.966L13.732,26.439ZM7.203,22.484C7.605,21.593 7.752,20.676 7.807,19.73C7.861,18.812 7.832,17.743 7.821,16.586L4.822,16.614C4.833,17.864 4.859,18.77 4.813,19.554C4.768,20.312 4.661,20.824 4.468,21.251L7.203,22.484ZM7,22.132C7.139,22.221 7.192,22.347 7.205,22.409C7.215,22.458 7.206,22.477 7.203,22.484L4.468,21.251C4.016,22.254 4.081,23.826 5.383,24.659L7,22.132ZM12.997,27.042C12.82,26.591 13.324,26.178 13.732,26.439L12.115,28.966C14.155,30.271 16.673,28.204 15.791,25.949L12.997,27.042ZM6.813,17.364C8.506,17.833 9.88,19.073 10.52,20.71L13.314,19.617C12.33,17.101 10.218,15.195 7.615,14.473L6.813,17.364ZM7.615,14.473C6.212,14.083 4.808,15.139 4.822,16.614L7.821,16.586C7.827,17.125 7.314,17.503 6.813,17.364L7.615,14.473Z" transform="rotate(-275.857 10.39 22.514)" fill="#FFFFFF"/>
<path d="M21.932,21.765C21.974,20.937 21.338,20.232 20.51,20.19C19.683,20.148 18.978,20.784 18.935,21.611L21.932,21.765ZM18.068,38.56C18.026,39.387 18.662,40.092 19.49,40.135C20.317,40.177 21.022,39.541 21.064,38.713L18.068,38.56ZM18.935,21.611L18.068,38.56L21.064,38.713L21.932,21.765L18.935,21.611Z" transform="rotate(84.143 20 30.162)" fill="#FFFFFF"/>
</svg>
