<svg width="148" height="148" viewBox="0 0 148 148" fill="none" xmlns="http://www.w3.org/2000/svg" xmlns:xlink="http://www.w3.org/1999/xlink">
<path d="M74,11.1C74,4.97 69.003,-0.085 62.941,0.831C51.244,2.599 40.085,7.155 30.436,14.182C17.78,23.399 8.374,36.392 3.57,51.293C-1.234,66.194 -1.188,82.235 3.7,97.108C8.589,111.981 18.069,124.92 30.777,134.065C43.485,143.21 58.766,148.088 74.422,147.999C90.078,147.91 105.302,142.857 117.905,133.568C130.507,124.279 139.839,111.233 144.558,96.305C148.157,84.923 148.931,72.894 146.892,61.242C145.835,55.203 139.454,52.071 133.642,54.018L133.642,54.018C127.829,55.965 124.826,62.271 125.493,68.365C126.271,75.478 125.572,82.715 123.391,89.613C120.088,100.063 113.555,109.196 104.733,115.698C95.911,122.2 85.254,125.737 74.295,125.799C63.336,125.862 52.64,122.447 43.744,116.046C34.849,109.644 28.213,100.587 24.79,90.175C21.368,79.764 21.336,68.536 24.699,58.105C28.062,47.675 34.646,38.579 43.505,32.128C49.353,27.869 55.994,24.906 62.985,23.385C68.975,22.081 74,17.23 74,11.1L74,11.1Z" fill="#A48AED"/>
</svg>
