<svg width="48" height="48" viewBox="0 0 48 48" fill="none" xmlns="http://www.w3.org/2000/svg" xmlns:xlink="http://www.w3.org/1999/xlink">
<path d="M4,24C4,16.523 4,12.785 5.608,10C6.661,8.176 8.176,6.661 10,5.608C12.785,4 16.523,4 24,4C31.477,4 35.215,4 38,5.608C39.824,6.661 41.339,8.176 42.392,10C44,12.785 44,16.523 44,24C44,31.477 44,35.215 42.392,38C41.339,39.824 39.824,41.339 38,42.392C35.215,44 31.477,44 24,44C16.523,44 12.785,44 10,42.392C8.176,41.339 6.661,39.824 5.608,38C4,35.215 4,31.477 4,24Z" stroke="#FFFFFF" stroke-width="1.5" stroke-miterlimit="3.999327"/>
<path d="M26,17C26,14.239 28.239,12 31,12C33.761,12 36,14.239 36,17L36,33C36,35.761 33.761,38 31,38C28.239,38 26,35.761 26,33L26,17Z" stroke="#FFFFFF" stroke-width="1.5" stroke-miterlimit="3.999327"/>
<path d="M12,27C12,24.239 14.239,22 17,22C19.761,22 22,24.239 22,27L22,33C22,35.761 19.761,38 17,38C14.239,38 12,35.761 12,33L12,27Z" stroke="#FFFFFF" stroke-width="1.5" stroke-miterlimit="3.999327"/>
</svg>
