<svg width="276" height="96" viewBox="0 0 276 96" fill="none" xmlns="http://www.w3.org/2000/svg" xmlns:xlink="http://www.w3.org/1999/xlink">
<rect  x="260" y="0" width="16" height="94" rx="40" fill="#F5EDFF"/>
<rect  x="260" y="24" width="16" height="72" rx="40" fill="#3F2B57"/>
<rect  x="234" y="0" width="16" height="94" rx="40" fill="#F5EDFF"/>
<rect  x="234" y="46" width="16" height="50" rx="40" fill="#3F2B57"/>
<rect  x="208" y="0" width="16" height="94" rx="40" fill="#F5EDFF"/>
<rect  x="208" y="0" width="16" height="96" rx="40" fill="#3F2B57"/>
<rect  x="182" y="0" width="16" height="94" rx="40" fill="#F5EDFF"/>
<rect  x="182" y="62" width="16" height="34" rx="40" fill="#3F2B57"/>
<rect  x="156" y="0" width="16" height="94" rx="40" fill="#F5EDFF"/>
<rect  x="156" y="22" width="16" height="74" rx="40" fill="#3F2B57"/>
<rect  x="130" y="0" width="16" height="94" rx="40" fill="#F5EDFF"/>
<rect  x="130" y="58" width="16" height="38" rx="40" fill="#3F2B57"/>
<rect  x="104" y="0" width="16" height="94" rx="40" fill="#F5EDFF"/>
<rect  x="104" y="2" width="16" height="94" rx="40" fill="#3F2B57"/>
<rect  x="78" y="0" width="16" height="94" rx="40" fill="#F5EDFF"/>
<rect  x="78" y="12" width="16" height="84" rx="40" fill="#3F2B57"/>
<rect  x="52" y="0" width="16" height="94" rx="40" fill="#F5EDFF"/>
<rect  x="52" y="50" width="16" height="46" rx="40" fill="#3F2B57"/>
<rect  x="26" y="0" width="16" height="94" rx="40" fill="#F5EDFF"/>
<rect  x="26" y="20" width="16" height="76" rx="40" fill="#3F2B57"/>
<rect  x="0" y="0" width="16" height="94" rx="40" fill="#F5EDFF"/>
<rect  x="0" y="36" width="16" height="60" rx="40" fill="#3F2B57"/>
</svg>
