<svg width="22" height="26" viewBox="0 0 22 26" fill="none" xmlns="http://www.w3.org/2000/svg" xmlns:xlink="http://www.w3.org/1999/xlink">
<path d="M10,0.333L10.59,-0.313C10.308,-0.57 9.892,-0.615 9.562,-0.424L10,0.333ZM3,7.333L3.7,6.808C3.551,6.609 3.324,6.483 3.077,6.462C2.829,6.44 2.584,6.524 2.402,6.694L3,7.333ZM18.458,14.121C18.458,18.928 14.653,22.792 10,22.792L10,24.542C15.656,24.542 20.208,19.858 20.208,14.121L18.458,14.121ZM10,22.792C5.347,22.792 1.542,18.928 1.542,14.121L-0.208,14.121C-0.208,19.858 4.344,24.542 10,24.542L10,22.792ZM10,0.333C9.41,0.98 9.41,0.98 9.41,0.98C9.41,0.98 9.41,0.98 9.41,0.98C9.41,0.98 9.411,0.98 9.411,0.981C9.412,0.981 9.413,0.983 9.415,0.984C9.419,0.988 9.426,0.994 9.434,1.001C9.45,1.017 9.475,1.04 9.509,1.071C9.575,1.132 9.672,1.224 9.797,1.343C10.048,1.581 10.406,1.929 10.838,2.363C11.701,3.232 12.85,4.442 13.996,5.812C15.145,7.185 16.275,8.699 17.114,10.175C17.965,11.673 18.458,13.032 18.458,14.121L20.208,14.121C20.208,12.574 19.535,10.892 18.636,9.31C17.725,7.708 16.522,6.104 15.338,4.689C14.15,3.27 12.966,2.022 12.079,1.13C11.635,0.683 11.265,0.324 11.005,0.076C10.874,-0.048 10.772,-0.144 10.701,-0.21C10.666,-0.243 10.638,-0.268 10.62,-0.286C10.61,-0.294 10.603,-0.301 10.598,-0.305C10.596,-0.308 10.594,-0.31 10.592,-0.311C10.592,-0.311 10.591,-0.312 10.591,-0.312C10.59,-0.313 10.59,-0.313 10.59,-0.313C10.59,-0.313 10.59,-0.313 10,0.333ZM7.408,10.217C7.475,8.808 7.661,6.81 8.148,4.991C8.651,3.118 9.408,1.686 10.438,1.091L9.562,-0.424C7.885,0.545 6.978,2.599 6.458,4.538C5.924,6.531 5.73,8.672 5.66,10.133L7.408,10.217ZM1.542,14.121C1.542,13.235 1.675,12.032 2.014,10.867C2.355,9.691 2.88,8.644 3.598,7.973L2.402,6.694C1.36,7.668 0.718,9.054 0.333,10.379C-0.055,11.716 -0.208,13.085 -0.208,14.121L1.542,14.121ZM2.3,7.858L4.704,11.063L6.104,10.013L3.7,6.808L2.3,7.858ZM5.66,10.133C5.663,10.075 5.687,10.016 5.723,9.973C5.755,9.935 5.789,9.916 5.817,9.908C5.844,9.899 5.888,9.892 5.943,9.907C6.007,9.924 6.066,9.963 6.104,10.013L4.704,11.063C5.139,11.644 5.833,11.742 6.356,11.572C6.876,11.404 7.374,10.926 7.408,10.217L5.66,10.133Z" fill="#000000"/>
<path d="M10,21.041C10.483,21.041 10.875,20.65 10.875,20.166C10.875,19.683 10.483,19.291 10,19.291L10,21.041ZM5.042,14.333C5.042,13.85 4.65,13.458 4.167,13.458C3.684,13.458 3.292,13.85 3.292,14.333L5.042,14.333ZM10,19.291C9.349,19.291 8.704,19.163 8.103,18.914L7.433,20.531C8.247,20.868 9.119,21.041 10,21.041L10,19.291ZM8.103,18.914C7.501,18.665 6.955,18.3 6.494,17.839L5.257,19.077C5.88,19.7 6.619,20.194 7.433,20.531L8.103,18.914ZM6.494,17.839C6.034,17.379 5.668,16.832 5.419,16.231L3.802,16.9C4.14,17.714 4.634,18.454 5.257,19.077L6.494,17.839ZM5.419,16.231C5.17,15.629 5.042,14.984 5.042,14.333L3.292,14.333C3.292,15.214 3.465,16.086 3.802,16.9L5.419,16.231Z" fill="#000000"/>
</svg>
