<svg width="20" height="22" viewBox="0 0 20 22" fill="none" xmlns="http://www.w3.org/2000/svg" xmlns:xlink="http://www.w3.org/1999/xlink">
<circle cx="10" cy="12.333" r="9.333" stroke="#000000" stroke-width="0.875" stroke-miterlimit="3.999327"/>
<line x1="6.5" y1="-1.375" x2="13.5" y2="-1.375" stroke="#000000" stroke-width="0.875" stroke-miterlimit="3.999327" stroke-linecap="round" stroke-linejoin="round"/>
<path d="M10.875,6.5C10.875,6.017 10.483,5.625 10,5.625C9.517,5.625 9.125,6.017 9.125,6.5L10.875,6.5ZM12.245,16.394C12.554,16.765 13.106,16.815 13.477,16.506C13.848,16.196 13.898,15.644 13.589,15.273L12.245,16.394ZM9.125,6.5L9.125,12.291L10.875,12.291L10.875,6.5L9.125,6.5ZM9.355,12.926L12.245,16.394L13.589,15.273L10.699,11.806L9.355,12.926ZM9.125,12.291C9.125,12.523 9.207,12.748 9.355,12.926L10.699,11.806C10.813,11.942 10.875,12.114 10.875,12.291L9.125,12.291Z" fill="#000000"/>
</svg>
