<svg width="34" height="38" viewBox="0 0 34 38" fill="none" xmlns="http://www.w3.org/2000/svg" xmlns:xlink="http://www.w3.org/1999/xlink">
<path d="M-0.25,15C-0.25,15.69 0.31,16.25 1,16.25C1.69,16.25 2.25,15.69 2.25,15L-0.25,15ZM2.25,25C2.25,24.31 1.69,23.75 1,23.75C0.31,23.75 -0.25,24.31 -0.25,25L2.25,25ZM32.25,15C32.25,14.31 31.69,13.75 31,13.75C30.31,13.75 29.75,14.31 29.75,15L32.25,15ZM17.667,6.25C18.357,6.25 18.917,5.69 18.917,5C18.917,4.31 18.357,3.75 17.667,3.75L17.667,6.25ZM26,33.75L6,33.75L6,36.25L26,36.25L26,33.75ZM2.25,15L2.25,10L-0.25,10L-0.25,15L2.25,15ZM2.25,30L2.25,25L-0.25,25L-0.25,30L2.25,30ZM29.75,15L29.75,30L32.25,30L32.25,15L29.75,15ZM6,6.25L17.667,6.25L17.667,3.75L6,3.75L6,6.25ZM6,33.75C3.929,33.75 2.25,32.071 2.25,30L-0.25,30C-0.25,33.452 2.548,36.25 6,36.25L6,33.75ZM26,36.25C29.452,36.25 32.25,33.452 32.25,30L29.75,30C29.75,32.071 28.071,33.75 26,33.75L26,36.25ZM2.25,10C2.25,7.929 3.929,6.25 6,6.25L6,3.75C2.548,3.75 -0.25,6.548 -0.25,10L2.25,10Z" fill="#A80000"/>
<path d="M28.229,5.582L26.979,5.582L26.979,6.832L28.229,6.832L28.229,5.582ZM29.258,9.685L23.082,9.685L23.082,12.185L29.258,12.185L29.258,9.685ZM23.082,9.685C23.659,9.685 24.126,10.152 24.126,10.729L21.626,10.729C21.626,11.533 22.278,12.185 23.082,12.185L23.082,9.685ZM30.684,8.258C30.684,9.046 30.046,9.685 29.258,9.685L29.258,12.185C31.427,12.185 33.184,10.427 33.184,8.258L30.684,8.258ZM29.258,6.832C30.046,6.832 30.684,7.471 30.684,8.258L33.184,8.258C33.184,6.09 31.427,4.332 29.258,4.332L29.258,6.832ZM24.126,10.729L24.126,4.553L21.626,4.553L21.626,10.729L24.126,10.729ZM25.552,3.126C26.34,3.126 26.979,3.765 26.979,4.553L29.479,4.553C29.479,2.384 27.721,0.626 25.552,0.626L25.552,3.126ZM24.126,4.553C24.126,3.765 24.765,3.126 25.552,3.126L25.552,0.626C23.384,0.626 21.626,2.384 21.626,4.553L24.126,4.553ZM26.979,4.553L26.979,5.582L29.479,5.582L29.479,4.553L26.979,4.553ZM28.229,6.832L29.258,6.832L29.258,4.332L28.229,4.332L28.229,6.832Z" transform="rotate(-90 27.405 6.405)" fill="#A80000"/>
<path d="M1,18.75C0.31,18.75 -0.25,19.31 -0.25,20C-0.25,20.69 0.31,21.25 1,21.25L1,18.75ZM26,21.25C26.69,21.25 27.25,20.69 27.25,20C27.25,19.31 26.69,18.75 26,18.75L26,21.25ZM18.833,20.667L19.833,21.417L18.833,20.667ZM13.909,24.968L15.121,24.665L13.909,24.968ZM9.95,14.734L8.95,13.984L9.95,14.734ZM11.425,15.032L10.212,15.335L11.425,15.032ZM6.5,19.333L7.5,20.083L6.5,19.333ZM1,21.25L5.167,21.25L5.167,18.75L1,18.75L1,21.25ZM7.5,20.083L10.95,15.484L8.95,13.984L5.5,18.583L7.5,20.083ZM10.212,15.335L12.696,25.271L15.121,24.665L12.637,14.729L10.212,15.335ZM16.384,26.016L19.833,21.417L17.833,19.917L14.384,24.516L16.384,26.016ZM20.167,21.25L26,21.25L26,18.75L20.167,18.75L20.167,21.25ZM19.833,21.417C19.912,21.312 20.036,21.25 20.167,21.25L20.167,18.75C19.249,18.75 18.384,19.182 17.833,19.917L19.833,21.417ZM12.696,25.271C13.121,26.973 15.331,27.419 16.384,26.016L14.384,24.516C14.594,24.235 15.036,24.325 15.121,24.665L12.696,25.271ZM10.95,15.484C10.739,15.765 10.297,15.675 10.212,15.335L12.637,14.729C12.212,13.027 10.002,12.581 8.95,13.984L10.95,15.484ZM5.167,21.25C6.085,21.25 6.949,20.818 7.5,20.083L5.5,18.583C5.421,18.688 5.298,18.75 5.167,18.75L5.167,21.25Z" fill="#A80000"/>
</svg>
