<svg width="36" height="36" viewBox="0 0 36 36" fill="none" xmlns="http://www.w3.org/2000/svg" xmlns:xlink="http://www.w3.org/1999/xlink">
<path d="M2.84,16.323L1.915,17.164L2.84,16.323ZM17.008,31.909L17.933,31.068L17.008,31.909ZM32.167,31.75L19.475,31.75L19.475,34.25L32.167,34.25L32.167,31.75ZM17.933,31.068L3.764,15.482L1.915,17.164L16.083,32.749L17.933,31.068ZM5.393,14.009L17.745,27.732L19.603,26.06L7.252,12.336L5.393,14.009ZM21.151,29.25L32.167,29.25L32.167,26.75L21.151,26.75L21.151,29.25ZM32.167,29.25C32.857,29.25 33.417,29.809 33.417,30.5L35.917,30.5C35.917,28.429 34.238,26.75 32.167,26.75L32.167,29.25ZM17.745,27.732C18.614,28.698 19.852,29.25 21.151,29.25L21.151,26.75C20.561,26.75 19.998,26.499 19.603,26.06L17.745,27.732ZM3.801,13.967C4.245,13.522 4.972,13.541 5.393,14.009L7.252,12.336C5.872,10.804 3.49,10.742 2.033,12.199L3.801,13.967ZM3.764,15.482C3.37,15.048 3.386,14.382 3.801,13.967L2.033,12.199C0.675,13.557 0.623,15.743 1.915,17.164L3.764,15.482ZM19.475,31.75C18.888,31.75 18.328,31.502 17.933,31.068L16.083,32.749C16.952,33.705 18.183,34.25 19.475,34.25L19.475,31.75ZM32.167,34.25C34.238,34.25 35.917,32.571 35.917,30.5L33.417,30.5C33.417,31.19 32.857,31.75 32.167,31.75L32.167,34.25Z" fill="#865A19"/>
<path d="M33,28L33,29.25C33.481,29.25 33.919,28.974 34.127,28.541C34.335,28.108 34.276,27.594 33.976,27.219L33,28ZM13,8L11.774,8.245C11.891,8.829 12.404,9.25 13,9.25L13,8ZM3,13L1.94,12.337C1.603,12.876 1.725,13.582 2.222,13.978C2.719,14.374 3.435,14.333 3.884,13.884L3,13ZM19.667,28L18.738,28.836C18.975,29.099 19.312,29.25 19.667,29.25L19.667,28ZM26.519,19.899L25.543,20.679L26.519,19.899ZM26.24,19.384L25.054,19.78L26.24,19.384ZM33.976,27.219L27.495,19.118L25.543,20.679L32.024,28.781L33.976,27.219ZM27.425,18.989L23.899,8.411L21.528,9.202L25.054,19.78L27.425,18.989ZM17.009,6.047L15.85,6.82L17.237,8.9L18.396,8.127L17.009,6.047ZM16.081,6.75L13,6.75L13,9.25L16.081,9.25L16.081,6.75ZM14.226,7.755L13.382,3.537L10.931,4.027L11.774,8.245L14.226,7.755ZM8.049,2.563L1.94,12.337L4.06,13.662L10.169,3.888L8.049,2.563ZM3.884,13.884L4.309,13.459L2.541,11.691L2.116,12.116L3.884,13.884ZM4.913,13.475L18.738,28.836L20.596,27.164L6.771,11.803L4.913,13.475ZM19.667,29.25L33,29.25L33,26.75L19.667,26.75L19.667,29.25ZM13.382,3.537C12.865,0.948 9.448,0.324 8.049,2.563L10.169,3.888C10.369,3.568 10.857,3.657 10.931,4.027L13.382,3.537ZM15.85,6.82C15.918,6.774 15.999,6.75 16.081,6.75L16.081,9.25C16.492,9.25 16.895,9.128 17.237,8.9L15.85,6.82ZM4.309,13.459C4.477,13.29 4.753,13.298 4.913,13.475L6.771,11.803C5.653,10.56 3.722,10.51 2.541,11.691L4.309,13.459ZM23.899,8.411C22.944,5.544 19.523,4.371 17.009,6.047L18.396,8.127C19.539,7.365 21.093,7.899 21.528,9.202L23.899,8.411ZM27.495,19.118C27.465,19.079 27.441,19.036 27.425,18.989L25.054,19.78C25.162,20.106 25.328,20.411 25.543,20.679L27.495,19.118Z" fill="#865A19"/>
<path d="M23.303,14.212C23.973,14.045 24.38,13.366 24.213,12.696C24.045,12.027 23.367,11.62 22.697,11.787L23.303,14.212ZM16.03,13.454C15.361,13.621 14.953,14.3 15.121,14.969C15.288,15.639 15.967,16.046 16.637,15.879L16.03,13.454ZM22.697,11.787L16.03,13.454L16.637,15.879L23.303,14.212L22.697,11.787Z" fill="#865A19"/>
<path d="M17.697,16.787C17.027,16.954 16.62,17.633 16.787,18.303C16.955,18.973 17.634,19.38 18.303,19.212L17.697,16.787ZM24.364,15.12L17.697,16.787L18.303,19.212L24.97,17.546L24.364,15.12Z" fill="#865A19"/>
<line x1="1.333" y1="31.75" x2="9.667" y2="31.75" stroke="#865A19" stroke-width="1.25" stroke-miterlimit="3.999327" stroke-linecap="round" stroke-linejoin="round"/>
<line x1="1.333" y1="26.75" x2="4.667" y2="26.75" stroke="#865A19" stroke-width="1.25" stroke-miterlimit="3.999327" stroke-linecap="round" stroke-linejoin="round"/>
</svg>
