<svg width="36" height="44" viewBox="0 0 36 44" fill="none" xmlns="http://www.w3.org/2000/svg" xmlns:xlink="http://www.w3.org/1999/xlink">
<path d="M18,2L19.011,0.892C18.528,0.451 17.815,0.374 17.249,0.701L18,2ZM6,14L7.2,13.1C6.944,12.759 6.556,12.543 6.131,12.506C5.707,12.468 5.287,12.613 4.976,12.904L6,14ZM10.121,19.494L8.921,20.394L10.121,19.494ZM32.5,25.636C32.5,33.877 25.977,40.5 18,40.5L18,43.5C27.697,43.5 35.5,35.47 35.5,25.636L32.5,25.636ZM18,40.5C10.023,40.5 3.5,33.877 3.5,25.636L0.5,25.636C0.5,35.47 8.303,43.5 18,43.5L18,40.5ZM18,2C16.989,3.108 16.989,3.108 16.989,3.108C16.989,3.108 16.989,3.108 16.989,3.108C16.989,3.108 16.99,3.109 16.991,3.11C16.992,3.111 16.994,3.113 16.998,3.116C17.005,3.122 17.015,3.132 17.029,3.145C17.058,3.171 17.101,3.211 17.157,3.264C17.271,3.369 17.438,3.527 17.653,3.731C18.082,4.14 18.697,4.735 19.436,5.479C20.916,6.969 22.885,9.044 24.85,11.392C26.819,13.745 28.757,16.34 30.196,18.872C31.655,21.439 32.5,23.77 32.5,25.636L35.5,25.636C35.5,22.984 34.345,20.101 32.804,17.389C31.243,14.642 29.181,11.893 27.15,9.466C25.115,7.035 23.084,4.895 21.564,3.365C20.803,2.599 20.168,1.984 19.722,1.559C19.499,1.346 19.323,1.181 19.202,1.068C19.141,1.012 19.095,0.969 19.062,0.939C19.046,0.924 19.034,0.913 19.025,0.905C19.021,0.901 19.018,0.898 19.015,0.896C19.014,0.895 19.013,0.894 19.012,0.893C19.012,0.893 19.012,0.893 19.012,0.892C19.011,0.892 19.011,0.892 18,2ZM13.556,18.943C13.672,16.528 13.99,13.102 14.826,9.985C15.687,6.774 16.985,4.319 18.751,3.299L17.249,0.701C14.374,2.364 12.819,5.884 11.928,9.208C11.012,12.625 10.679,16.294 10.56,18.8L13.556,18.943ZM3.5,25.636C3.5,24.117 3.729,22.055 4.309,20.058C4.895,18.041 5.794,16.246 7.024,15.096L4.976,12.904C3.189,14.574 2.088,16.95 1.428,19.221C0.762,21.514 0.5,23.86 0.5,25.636L3.5,25.636ZM4.8,14.9L8.921,20.394L11.321,18.594L7.2,13.1L4.8,14.9ZM10.56,18.8C10.565,18.7 10.607,18.599 10.668,18.525C10.723,18.46 10.782,18.428 10.829,18.413C10.876,18.398 10.95,18.387 11.046,18.412C11.154,18.441 11.256,18.508 11.321,18.594L8.921,20.394C9.667,21.39 10.857,21.557 11.753,21.267C12.645,20.978 13.498,20.159 13.556,18.943L10.56,18.8Z" fill="#191D1A"/>
<path d="M18,24L19.108,22.988C18.823,22.677 18.421,22.5 18,22.5C17.579,22.5 17.177,22.677 16.892,22.988L18,24ZM22.5,34.636C22.5,38.177 20.213,40.5 18,40.5L18,43.5C22.415,43.5 25.5,39.23 25.5,34.636L22.5,34.636ZM18,40.5C15.787,40.5 13.5,38.177 13.5,34.636L10.5,34.636C10.5,39.23 13.585,43.5 18,43.5L18,40.5ZM18,24C16.892,25.012 16.892,25.011 16.892,25.011C16.892,25.011 16.892,25.011 16.892,25.011C16.892,25.011 16.892,25.011 16.892,25.011C16.893,25.012 16.893,25.013 16.894,25.014C16.896,25.016 16.9,25.02 16.905,25.025C16.914,25.036 16.929,25.052 16.95,25.075C16.99,25.12 17.051,25.188 17.129,25.278C17.285,25.456 17.51,25.719 17.782,26.047C18.327,26.704 19.05,27.619 19.77,28.651C20.493,29.688 21.193,30.815 21.707,31.901C22.234,33.013 22.5,33.948 22.5,34.636L25.5,34.636C25.5,33.292 25.016,31.88 24.418,30.617C23.807,29.326 23.007,28.049 22.23,26.935C21.45,25.817 20.673,24.835 20.093,24.133C19.802,23.782 19.559,23.499 19.387,23.303C19.301,23.204 19.233,23.128 19.185,23.075C19.161,23.048 19.143,23.027 19.13,23.013C19.123,23.006 19.118,23 19.114,22.996C19.113,22.994 19.111,22.992 19.11,22.991C19.109,22.99 19.109,22.99 19.108,22.989C19.108,22.989 19.108,22.989 19.108,22.989C19.108,22.989 19.108,22.988 18,24ZM13.5,34.636C13.5,33.948 13.766,33.013 14.293,31.901C14.807,30.815 15.507,29.688 16.23,28.651C16.95,27.619 17.673,26.704 18.218,26.047C18.49,25.719 18.715,25.456 18.871,25.278C18.949,25.188 19.01,25.12 19.05,25.075C19.071,25.052 19.086,25.036 19.095,25.025C19.1,25.02 19.104,25.016 19.106,25.014C19.107,25.013 19.107,25.012 19.108,25.011C19.108,25.011 19.108,25.011 19.108,25.011C19.108,25.011 19.108,25.011 19.108,25.011C19.108,25.011 19.108,25.012 18,24C16.892,22.988 16.892,22.989 16.892,22.989C16.892,22.989 16.892,22.989 16.892,22.989C16.891,22.99 16.891,22.99 16.89,22.991C16.889,22.992 16.887,22.994 16.886,22.996C16.882,23 16.877,23.006 16.87,23.013C16.857,23.027 16.839,23.048 16.815,23.075C16.767,23.128 16.699,23.204 16.613,23.303C16.441,23.499 16.198,23.782 15.907,24.133C15.327,24.835 14.55,25.817 13.77,26.935C12.993,28.049 12.193,29.326 11.582,30.617C10.984,31.88 10.5,33.292 10.5,34.636L13.5,34.636Z" fill="#191D1A"/>
</svg>
