<svg width="118" height="102" viewBox="0 0 118 102" fill="none" xmlns="http://www.w3.org/2000/svg" xmlns:xlink="http://www.w3.org/1999/xlink">
<circle cx="85" cy="15" r="9" stroke="#FFFFFF" stroke-width="4.5" stroke-miterlimit="3.999327"/>
<path d="M52,17.999L54.881,14.542C53.093,13.052 50.464,13.172 48.818,14.817L52,17.999ZM24.818,38.817C23.061,40.575 23.061,43.424 24.818,45.181C26.576,46.939 29.425,46.939 31.182,45.181L24.818,38.817ZM88,47.999L85.119,51.456C86.907,52.946 89.536,52.827 91.182,51.181L88,47.999ZM115.182,27.181C116.94,25.424 116.94,22.575 115.182,20.817C113.425,19.06 110.576,19.06 108.818,20.817L115.182,27.181ZM48.818,14.817L24.818,38.817L31.182,45.181L55.182,21.181L48.818,14.817ZM91.182,51.181L115.182,27.181L108.818,20.817L84.818,44.817L91.182,51.181ZM90.881,44.542L54.881,14.542L49.119,21.456L85.119,51.456L90.881,44.542Z" fill="#FFFFFF"/>
<path d="M73.182,39.181C74.939,37.424 74.939,34.575 73.182,32.817C71.425,31.06 68.575,31.06 66.818,32.817L73.182,39.181ZM40,65.999L36.818,62.817C35.531,64.104 35.146,66.04 35.843,67.721C36.539,69.403 38.18,70.499 40,70.499L40,65.999ZM76,65.999L78.811,69.513C80.303,68.319 80.879,66.313 80.246,64.51C79.614,62.707 77.911,61.499 76,61.499L76,65.999ZM43.189,86.485C41.248,88.038 40.934,90.87 42.486,92.811C44.039,94.751 46.87,95.066 48.811,93.513L43.189,86.485ZM66.818,32.817L36.818,62.817L43.182,69.181L73.182,39.181L66.818,32.817ZM40,70.499L76,70.499L76,61.499L40,61.499L40,70.499ZM73.189,62.485L43.189,86.485L48.811,93.513L78.811,69.513L73.189,62.485Z" fill="#FFFFFF"/>
<path d="M42.881,69.456C44.79,67.865 45.048,65.027 43.457,63.118C41.866,61.209 39.028,60.951 37.119,62.542L42.881,69.456ZM1.119,92.542C-0.79,94.133 -1.048,96.971 0.543,98.88C2.134,100.789 4.972,101.047 6.881,99.456L1.119,92.542ZM37.119,62.542L1.119,92.542L6.881,99.456L42.881,69.456L37.119,62.542Z" fill="#FFFFFF"/>
<line x1="4" y1="4.499" x2="40" y2="4.499" stroke="#FFFFFF" stroke-width="4.5" stroke-miterlimit="3.999327" stroke-linecap="round" stroke-linejoin="round"/>
<line x1="4" y1="22.499" x2="16" y2="22.499" stroke="#FFFFFF" stroke-width="4.5" stroke-miterlimit="3.999327" stroke-linecap="round" stroke-linejoin="round"/>
</svg>
