<svg width="106" height="130" viewBox="0 0 106 130" fill="none" xmlns="http://www.w3.org/2000/svg" xmlns:xlink="http://www.w3.org/1999/xlink">
<path d="M52,4L55.033,0.676C53.584,-0.646 51.446,-0.877 49.748,0.104L52,4ZM16,40L19.6,37.3C18.833,36.278 17.668,35.629 16.395,35.517C15.121,35.405 13.861,35.84 12.927,36.713L16,40ZM28.362,56.482L24.762,59.182L28.362,56.482ZM95.5,74.909C95.5,99.632 75.93,119.5 52,119.5L52,128.5C81.09,128.5 104.5,104.411 104.5,74.909L95.5,74.909ZM52,119.5C28.07,119.5 8.5,99.632 8.5,74.909L-0.5,74.909C-0.5,104.411 22.91,128.5 52,128.5L52,119.5ZM52,4C48.967,7.324 48.967,7.324 48.966,7.324C48.967,7.324 48.967,7.324 48.967,7.324C48.968,7.325 48.969,7.326 48.972,7.329C48.976,7.333 48.983,7.339 48.994,7.349C49.014,7.367 49.046,7.396 49.088,7.436C49.173,7.514 49.302,7.633 49.472,7.792C49.812,8.108 50.315,8.58 50.958,9.193C52.245,10.419 54.09,12.206 56.308,14.438C60.748,18.908 66.655,25.133 72.549,32.176C78.458,39.235 84.272,47.021 88.588,54.615C92.964,62.316 95.5,69.309 95.5,74.909L104.5,74.909C104.5,66.953 101.036,58.304 96.412,50.168C91.728,41.925 85.542,33.678 79.451,26.399C73.345,19.104 67.252,12.685 62.692,8.095C60.41,5.798 58.505,3.952 57.167,2.677C56.497,2.039 55.969,1.544 55.606,1.205C55.424,1.036 55.284,0.906 55.187,0.817C55.139,0.773 55.102,0.739 55.076,0.715C55.063,0.703 55.053,0.694 55.046,0.687C55.042,0.684 55.039,0.682 55.037,0.68C55.036,0.679 55.035,0.678 55.035,0.677C55.034,0.676 55.033,0.676 52,4ZM38.669,54.83C39.015,47.584 39.97,37.307 42.477,27.954C45.06,18.321 48.957,10.957 54.252,7.896L49.748,0.104C41.121,5.091 36.458,15.652 33.784,25.623C31.035,35.875 30.038,46.883 29.679,54.401L38.669,54.83ZM8.5,74.909C8.5,70.35 9.187,64.164 10.927,58.174C12.685,52.123 15.381,46.739 19.073,43.287L12.927,36.713C7.568,41.722 4.264,48.849 2.284,55.664C0.287,62.541 -0.5,69.579 -0.5,74.909L8.5,74.909ZM12.4,42.7L24.762,59.182L31.962,53.782L19.6,37.3L12.4,42.7ZM29.679,54.401C29.694,54.099 29.82,53.797 30.005,53.576C30.169,53.381 30.345,53.285 30.486,53.239C30.628,53.193 30.851,53.16 31.138,53.236C31.463,53.322 31.768,53.524 31.962,53.782L24.762,59.182C27.001,62.169 30.57,62.672 33.26,61.801C35.935,60.934 38.495,58.477 38.669,54.83L29.679,54.401Z" fill="#FFFFFF"/>
<path d="M52,70L55.323,66.965C54.47,66.032 53.264,65.5 52,65.5C50.736,65.5 49.53,66.032 48.677,66.965L52,70ZM65.5,101.909C65.5,112.529 58.638,119.5 52,119.5L52,128.5C65.244,128.5 74.5,115.69 74.5,101.909L65.5,101.909ZM52,119.5C45.362,119.5 38.5,112.529 38.5,101.909L29.5,101.909C29.5,115.69 38.756,128.5 52,128.5L52,119.5ZM52,70C48.677,73.035 48.677,73.034 48.677,73.034C48.677,73.034 48.676,73.034 48.676,73.034C48.676,73.034 48.676,73.034 48.677,73.034C48.678,73.035 48.68,73.038 48.683,73.041C48.689,73.048 48.699,73.059 48.714,73.075C48.743,73.107 48.788,73.157 48.849,73.225C48.97,73.36 49.152,73.565 49.386,73.833C49.855,74.369 50.532,75.156 51.346,76.14C52.98,78.113 55.149,80.857 57.309,83.954C59.479,87.065 61.579,90.446 63.12,93.702C64.701,97.039 65.5,99.843 65.5,101.909L74.5,101.909C74.5,97.875 73.049,93.64 71.255,89.85C69.421,85.979 67.021,82.146 64.691,78.805C62.351,75.45 60.02,72.504 58.279,70.4C57.406,69.346 56.676,68.498 56.161,67.908C55.903,67.613 55.698,67.383 55.556,67.224C55.484,67.144 55.429,67.082 55.389,67.039C55.37,67.017 55.354,67 55.343,66.988C55.338,66.982 55.333,66.977 55.33,66.973C55.328,66.971 55.327,66.97 55.325,66.968C55.325,66.968 55.324,66.967 55.324,66.967C55.323,66.966 55.323,66.965 52,70ZM38.5,101.909C38.5,99.843 39.299,97.039 40.88,93.702C42.421,90.446 44.521,87.065 46.691,83.954C48.851,80.857 51.02,78.113 52.654,76.14C53.468,75.156 54.145,74.369 54.614,73.833C54.848,73.565 55.03,73.36 55.151,73.225C55.212,73.157 55.257,73.107 55.286,73.075C55.301,73.059 55.311,73.048 55.317,73.041C55.32,73.038 55.322,73.035 55.323,73.034C55.324,73.034 55.324,73.034 55.324,73.034C55.324,73.034 55.323,73.034 55.323,73.034C55.323,73.034 55.323,73.035 52,70C48.677,66.965 48.677,66.966 48.676,66.967C48.676,66.967 48.675,66.968 48.675,66.968C48.673,66.97 48.672,66.971 48.67,66.973C48.667,66.977 48.662,66.982 48.657,66.988C48.646,67 48.63,67.017 48.611,67.039C48.571,67.082 48.516,67.144 48.444,67.224C48.302,67.383 48.097,67.613 47.839,67.908C47.324,68.498 46.594,69.346 45.721,70.4C43.98,72.504 41.649,75.45 39.309,78.805C36.979,82.146 34.579,85.979 32.745,89.85C30.951,93.64 29.5,97.875 29.5,101.909L38.5,101.909Z" fill="#FFFFFF"/>
</svg>
