<svg width="30" height="36" viewBox="0 0 30 36" fill="none" xmlns="http://www.w3.org/2000/svg" xmlns:xlink="http://www.w3.org/1999/xlink">
<path d="M14,1.334L14.842,0.41C14.365,-0.025 13.635,-0.025 13.157,0.41L14,1.334ZM26.083,21.031C26.083,27.898 20.647,33.417 14,33.417L14,35.917C22.08,35.917 28.583,29.225 28.583,21.031L26.083,21.031ZM14,33.417C7.353,33.417 1.917,27.898 1.917,21.031L-0.583,21.031C-0.583,29.225 5.919,35.917 14,35.917L14,33.417ZM1.917,21.031C1.917,19.475 2.621,17.533 3.837,15.393C5.035,13.284 6.651,11.121 8.292,9.16C9.929,7.204 11.57,5.475 12.803,4.233C13.419,3.613 13.932,3.117 14.289,2.776C14.468,2.606 14.608,2.475 14.702,2.387C14.749,2.343 14.785,2.31 14.809,2.288C14.821,2.277 14.829,2.269 14.835,2.264C14.838,2.261 14.84,2.259 14.841,2.258C14.842,2.258 14.842,2.257 14.842,2.257C14.842,2.257 14.843,2.257 14.843,2.257C14.843,2.257 14.842,2.257 14,1.334C13.157,0.41 13.157,0.41 13.157,0.411C13.157,0.411 13.157,0.411 13.156,0.411C13.156,0.412 13.155,0.413 13.154,0.414C13.152,0.415 13.149,0.418 13.145,0.421C13.138,0.428 13.128,0.437 13.115,0.45C13.088,0.474 13.049,0.51 12.998,0.557C12.897,0.651 12.751,0.789 12.565,0.966C12.193,1.32 11.664,1.833 11.03,2.471C9.763,3.746 8.071,5.529 6.375,7.556C4.683,9.577 2.964,11.868 1.663,14.158C0.379,16.418 -0.583,18.821 -0.583,21.031L1.917,21.031ZM14,1.334C13.157,2.257 13.157,2.257 13.157,2.257C13.157,2.257 13.157,2.257 13.157,2.257C13.158,2.257 13.158,2.258 13.159,2.258C13.16,2.259 13.162,2.261 13.165,2.264C13.17,2.269 13.179,2.277 13.191,2.288C13.215,2.31 13.251,2.343 13.298,2.387C13.392,2.475 13.532,2.606 13.711,2.776C14.068,3.117 14.581,3.613 15.196,4.233C16.43,5.475 18.071,7.204 19.708,9.16C21.349,11.121 22.964,13.284 24.163,15.393C25.379,17.533 26.083,19.475 26.083,21.031L28.583,21.031C28.583,18.821 27.621,16.418 26.337,14.158C25.035,11.868 23.317,9.577 21.625,7.556C19.929,5.529 18.237,3.746 16.97,2.471C16.336,1.833 15.807,1.32 15.435,0.966C15.249,0.789 15.102,0.651 15.002,0.557C14.951,0.51 14.912,0.474 14.885,0.45C14.872,0.437 14.862,0.428 14.854,0.421C14.851,0.418 14.848,0.415 14.846,0.414C14.845,0.413 14.844,0.412 14.844,0.411C14.843,0.411 14.843,0.411 14.843,0.411C14.843,0.41 14.842,0.41 14,1.334Z" fill="#2B4855"/>
<path d="M14,30.917C14.69,30.917 15.25,30.357 15.25,29.667C15.25,28.977 14.69,28.417 14,28.417L14,30.917ZM6.917,21.334C6.917,20.643 6.357,20.084 5.667,20.084C4.976,20.084 4.417,20.643 4.417,21.334L6.917,21.334ZM14,28.417C13.07,28.417 12.149,28.234 11.289,27.878L10.333,30.188C11.495,30.669 12.741,30.917 14,30.917L14,28.417ZM11.289,27.878C10.43,27.522 9.649,27 8.991,26.342L7.223,28.11C8.113,29 9.17,29.706 10.333,30.188L11.289,27.878ZM8.991,26.342C8.333,25.685 7.812,24.904 7.456,24.044L5.146,25.001C5.628,26.164 6.334,27.22 7.223,28.11L8.991,26.342ZM7.456,24.044C7.1,23.185 6.917,22.264 6.917,21.334L4.417,21.334C4.417,22.592 4.664,23.838 5.146,25.001L7.456,24.044Z" fill="#2B4855"/>
</svg>
