<svg width="32" height="38" viewBox="0 0 32 38" fill="none" xmlns="http://www.w3.org/2000/svg" xmlns:xlink="http://www.w3.org/1999/xlink">
<circle cx="16" cy="22" r="16" stroke="#191D1A" stroke-width="1.5" stroke-miterlimit="3.999327"/>
<line x1="10" y1="-1.5" x2="22" y2="-1.5" stroke="#191D1A" stroke-width="1.5" stroke-miterlimit="3.999327" stroke-linecap="round" stroke-linejoin="round"/>
<path d="M17.5,12C17.5,11.172 16.828,10.5 16,10.5C15.172,10.5 14.5,11.172 14.5,12L17.5,12ZM19.848,28.96C20.378,29.597 21.324,29.683 21.96,29.152C22.597,28.622 22.683,27.676 22.152,27.04L19.848,28.96ZM16.046,22.056L17.199,21.095L16.046,22.056ZM14.5,12L14.5,21.928L17.5,21.928L17.5,12L14.5,12ZM14.894,23.016L19.848,28.96L22.152,27.04L17.199,21.095L14.894,23.016ZM14.5,21.928C14.5,22.325 14.639,22.71 14.894,23.016L17.199,21.095C17.393,21.329 17.5,21.623 17.5,21.928L14.5,21.928Z" fill="#191D1A"/>
</svg>
