<svg width="144" height="144" viewBox="0 0 144 144" fill="none" xmlns="http://www.w3.org/2000/svg" xmlns:xlink="http://www.w3.org/1999/xlink">
<g opacity="0.5">
<path d="M44.443,102.965L41.115,99.935L44.443,102.965ZM42.823,104.744L39.496,101.714L42.823,104.744ZM101.177,104.744L97.85,107.774L101.177,104.744ZM101.177,70.315L97.85,67.285L101.177,70.315ZM54.749,52.5L89.251,52.5L89.251,43.5L54.749,43.5L54.749,52.5ZM85.689,127.5L58.311,127.5L58.311,136.5L85.689,136.5L85.689,127.5ZM99,62.249L99,64.315L108,64.315L108,62.249L99,62.249ZM99,110.744L99,114.189L108,114.189L108,110.744L99,110.744ZM96.23,105.995L97.85,107.774L104.504,101.714L102.884,99.935L96.23,105.995ZM97.85,67.285L96.23,69.064L102.884,75.124L104.504,73.345L97.85,67.285ZM45,64.315L45,62.249L36,62.249L36,64.315L45,64.315ZM45,114.189L45,110.744L36,110.744L36,114.189L45,114.189ZM47.77,69.064L46.15,67.285L39.496,73.345L41.115,75.124L47.77,69.064ZM46.15,107.774L47.77,105.995L41.115,99.935L39.496,101.714L46.15,107.774ZM47.77,105.995C52.272,101.051 51.493,93.294 46.097,89.344L40.781,96.606C41.86,97.396 42.016,98.947 41.115,99.935L47.77,105.995ZM46.097,85.715C51.493,81.765 52.272,74.008 47.77,69.064L41.115,75.124C42.016,76.112 41.86,77.663 40.781,78.453L46.097,85.715ZM45,110.744C45,109.645 45.41,108.586 46.15,107.774L39.496,101.714C37.247,104.183 36,107.403 36,110.744L45,110.744ZM36,64.315C36,67.655 37.247,70.875 39.496,73.345L46.15,67.285C45.41,66.473 45,65.414 45,64.315L36,64.315ZM40.781,78.453C34.642,82.947 34.642,92.112 40.781,96.606L46.097,89.344C44.87,88.446 44.87,86.613 46.097,85.715L40.781,78.453ZM108,110.744C108,107.403 106.753,104.183 104.504,101.714L97.85,107.774C98.59,108.586 99,109.645 99,110.744L108,110.744ZM102.884,99.935C101.984,98.947 102.14,97.396 103.219,96.606L97.903,89.344C92.507,93.294 91.728,101.051 96.23,105.995L102.884,99.935ZM103.219,96.606C109.358,92.112 109.358,82.947 103.219,78.453L97.903,85.715C99.13,86.613 99.13,88.446 97.903,89.344L103.219,96.606ZM103.219,78.453C102.14,77.663 101.984,76.112 102.884,75.124L96.23,69.064C91.728,74.008 92.507,81.765 97.903,85.715L103.219,78.453ZM99,64.315C99,65.414 98.59,66.473 97.85,67.285L104.504,73.345C106.753,70.875 108,67.655 108,64.315L99,64.315ZM58.311,127.5C50.96,127.5 45,121.54 45,114.189L36,114.189C36,126.511 45.989,136.5 58.311,136.5L58.311,127.5ZM85.689,136.5C98.011,136.5 108,126.511 108,114.189L99,114.189C99,121.54 93.04,127.5 85.689,127.5L85.689,136.5ZM89.251,52.5C94.635,52.5 99,56.865 99,62.249L108,62.249C108,51.894 99.606,43.5 89.251,43.5L89.251,52.5ZM54.749,43.5C44.394,43.5 36,51.894 36,62.249L45,62.249C45,56.865 49.365,52.5 54.749,52.5L54.749,43.5Z" fill="#B4C5E4"/>
<path d="M66,34.5L78,34.5L78,25.5L66,25.5L66,34.5ZM96,43.5L48,43.5L48,52.5L96,52.5L96,43.5ZM78,34.5C85.456,34.5 91.5,40.544 91.5,48L100.5,48C100.5,35.574 90.426,25.5 78,25.5L78,34.5ZM66,25.5C53.574,25.5 43.5,35.574 43.5,48L52.5,48C52.5,40.544 58.544,34.5 66,34.5L66,25.5Z" fill="#B4C5E4"/>
<path d="M66,16.5L78,16.5L78,7.5L66,7.5L66,16.5ZM79.5,18L79.5,24L88.5,24L88.5,18L79.5,18ZM78,25.5L66,25.5L66,34.5L78,34.5L78,25.5ZM64.5,24L64.5,18L55.5,18L55.5,24L64.5,24ZM66,25.5C65.172,25.5 64.5,24.828 64.5,24L55.5,24C55.5,29.799 60.201,34.5 66,34.5L66,25.5ZM79.5,24C79.5,24.828 78.828,25.5 78,25.5L78,34.5C83.799,34.5 88.5,29.799 88.5,24L79.5,24ZM78,16.5C78.828,16.5 79.5,17.172 79.5,18L88.5,18C88.5,12.201 83.799,7.5 78,7.5L78,16.5ZM66,7.5C60.201,7.5 55.5,12.201 55.5,18L64.5,18C64.5,17.172 65.172,16.5 66,16.5L66,7.5Z" fill="#B4C5E4"/>
</g>
</svg>
