<svg width="498" height="100" viewBox="0 0 498 100" fill="none" xmlns="http://www.w3.org/2000/svg" xmlns:xlink="http://www.w3.org/1999/xlink">
<path d="M0,40C0,21.144 0,11.716 5.858,5.858C11.716,0 21.144,0 40,0L458,0C476.856,0 486.284,0 492.142,5.858C498,11.716 498,21.144 498,40L498,60C498,78.856 498,88.284 492.142,94.142C486.284,100 476.856,100 458,100L40,100C21.144,100 11.716,100 5.858,94.142C0,88.284 0,78.856 0,60L0,40Z" fill="#FFFFFF" stroke="#FFFFFF" stroke-width="2" stroke-miterlimit="3.999327"/>
</svg>
