<svg width="36" height="18" viewBox="0 0 36 18" fill="none" xmlns="http://www.w3.org/2000/svg" xmlns:xlink="http://www.w3.org/1999/xlink">
<path d="M31.57,12.609L31.027,11.211L31.57,12.609ZM31.027,11.211C28.528,12.182 24.027,13.5 18,13.5L18,16.5C24.467,16.5 29.338,15.086 32.114,14.007L31.027,11.211ZM18,13.5C11.973,13.5 7.472,12.182 4.973,11.211L3.886,14.007C6.662,15.086 11.533,16.5 18,16.5L18,13.5ZM4.687,6.628C7.067,5.377 11.69,3.5 18,3.5L18,0.5C11.087,0.5 5.985,2.557 3.291,3.972L4.687,6.628ZM18,3.5C24.31,3.5 28.933,5.377 31.313,6.628L32.709,3.972C30.015,2.557 24.913,0.5 18,0.5L18,3.5ZM0.5,8.827C0.5,10.997 1.676,13.148 3.886,14.007L4.973,11.211C4.098,10.871 3.5,9.967 3.5,8.827L0.5,8.827ZM32.5,8.827C32.5,9.967 31.902,10.871 31.027,11.211L32.114,14.007C34.324,13.148 35.5,10.997 35.5,8.827L32.5,8.827ZM35.5,8.827C35.5,6.91 34.585,4.958 32.709,3.972L31.313,6.628C32.03,7.005 32.5,7.814 32.5,8.827L35.5,8.827ZM3.5,8.827C3.5,7.814 3.97,7.005 4.687,6.628L3.291,3.972C1.415,4.958 0.5,6.91 0.5,8.827L3.5,8.827Z" fill="#FFFFFF"/>
</svg>
