<svg width="36" height="36" viewBox="0 0 36 36" fill="none" xmlns="http://www.w3.org/2000/svg" xmlns:xlink="http://www.w3.org/1999/xlink">
<path d="M0,15.068C0,13.141 0.925,11.332 2.487,10.204L14.487,1.537C16.584,0.023 19.416,0.023 21.513,1.537L33.513,10.204C35.075,11.332 36,13.141 36,15.068L36,32C36,34.209 34.209,36 32,36L22,36C20.895,36 20,35.105 20,34L20,28C20,26.895 19.105,26 18,26L12.5,26C11.395,26 10.5,26.895 10.5,28L10.5,34C10.5,35.105 9.605,36 8.5,36L4,36C1.791,36 0,34.209 0,32L0,15.068Z" fill="#3C3744"/>
</svg>
