<svg width="152" height="100" viewBox="0 0 152 100" fill="none" xmlns="http://www.w3.org/2000/svg" xmlns:xlink="http://www.w3.org/1999/xlink">
<path d="M0,40C0,21.144 0,11.716 5.858,5.858C11.716,0 21.144,0 40,0L112,0C130.856,0 140.284,0 146.142,5.858C152,11.716 152,21.144 152,40L152,60C152,78.856 152,88.284 146.142,94.142C140.284,100 130.856,100 112,100L40,100C21.144,100 11.716,100 5.858,94.142C0,88.284 0,78.856 0,60L0,40Z" fill="#FFFFFF" stroke="#FFFFFF" stroke-width="2" stroke-miterlimit="3.999327"/>
</svg>
