<svg width="40" height="40" viewBox="0 0 40 40" fill="none" xmlns="http://www.w3.org/2000/svg" xmlns:xlink="http://www.w3.org/1999/xlink">
<path d="M0,20C0,12.523 0,8.785 1.608,6C2.661,4.176 4.176,2.661 6,1.608C8.785,0 12.523,0 20,0C27.477,0 31.215,0 34,1.608C35.824,2.661 37.339,4.176 38.392,6C40,8.785 40,12.523 40,20C40,27.477 40,31.215 38.392,34C37.339,35.824 35.824,37.339 34,38.392C31.215,40 27.477,40 20,40C12.523,40 8.785,40 6,38.392C4.176,37.339 2.661,35.824 1.608,34C0,31.215 0,27.477 0,20ZM22,13C22,10.239 24.239,8 27,8C29.761,8 32,10.239 32,13L32,29C32,31.761 29.761,34 27,34C24.239,34 22,31.761 22,29L22,13ZM13,18C10.239,18 8,20.239 8,23L8,29C8,31.761 10.239,34 13,34C15.761,34 18,31.761 18,29L18,23C18,20.239 15.761,18 13,18Z" clip-rule="evenodd" fill-rule="evenodd" fill="#3C3744" stroke="#3C3744" stroke-width="1.5" stroke-miterlimit="3.999327"/>
</svg>
