<svg width="16" height="32" viewBox="0 0 16 32" fill="none" xmlns="http://www.w3.org/2000/svg" xmlns:xlink="http://www.w3.org/1999/xlink">
<path d="M15.061,3.061C15.646,2.475 15.646,1.525 15.061,0.939C14.475,0.354 13.525,0.354 12.939,0.939L15.061,3.061ZM12.939,31.061C13.525,31.646 14.475,31.646 15.061,31.061C15.646,30.475 15.646,29.525 15.061,28.939L12.939,31.061ZM12.939,0.939L0.354,13.525L2.475,15.646L15.061,3.061L12.939,0.939ZM0.354,18.475L12.939,31.061L15.061,28.939L2.475,16.354L0.354,18.475ZM0.354,13.525C-1.013,14.892 -1.013,17.108 0.354,18.475L2.475,16.354C2.28,16.158 2.28,15.842 2.475,15.646L0.354,13.525Z" fill="#FFFFFF"/>
</svg>
