<svg width="34" height="34" viewBox="0 0 34 34" fill="none" xmlns="http://www.w3.org/2000/svg" xmlns:xlink="http://www.w3.org/1999/xlink">
<path d="M16,1L16,-0.25L16,-0.25L16,1ZM17.667,1L17.978,2.211C18.588,2.054 18.986,1.468 18.907,0.843C18.828,0.218 18.296,-0.25 17.667,-0.25L17.667,1ZM31,14.333L32.25,14.333C32.25,13.704 31.782,13.172 31.157,13.093C30.532,13.014 29.946,13.412 29.789,14.022L31,14.333ZM29.75,16C29.75,23.594 23.594,29.75 16,29.75L16,32.25C24.975,32.25 32.25,24.975 32.25,16L29.75,16ZM16,29.75C8.406,29.75 2.25,23.594 2.25,16L-0.25,16C-0.25,24.975 7.025,32.25 16,32.25L16,29.75ZM2.25,16C2.25,8.406 8.406,2.25 16,2.25L16,-0.25C7.025,-0.25 -0.25,7.025 -0.25,16L2.25,16ZM21,19.75C16.168,19.75 12.25,15.833 12.25,11L9.75,11C9.75,17.213 14.787,22.25 21,22.25L21,19.75ZM12.25,11C12.25,6.7 14.398,3.132 17.978,2.211L17.355,-0.211C12.309,1.088 9.75,5.981 9.75,11L12.25,11ZM29.789,14.022C28.868,17.602 25.3,19.75 21,19.75L21,22.25C26.019,22.25 30.912,19.691 32.211,14.645L29.789,14.022ZM16,2.25L17.667,2.25L17.667,-0.25L16,-0.25L16,2.25ZM29.75,14.333L29.75,16L32.25,16L32.25,14.333L29.75,14.333Z" fill="#3D275A"/>
</svg>
