<svg width="10" height="16" viewBox="0 0 10 16" fill="none" xmlns="http://www.w3.org/2000/svg" xmlns:xlink="http://www.w3.org/1999/xlink">
<path d="M8.53,1.53C8.823,1.237 8.823,0.763 8.53,0.47C8.237,0.177 7.763,0.177 7.47,0.47L8.53,1.53ZM7.47,15.53C7.763,15.823 8.237,15.823 8.53,15.53C8.823,15.237 8.823,14.763 8.53,14.47L7.47,15.53ZM7.47,0.47L1.177,6.763L2.237,7.823L8.53,1.53L7.47,0.47ZM1.177,9.237L7.47,15.53L8.53,14.47L2.237,8.177L1.177,9.237ZM1.177,6.763C0.493,7.446 0.493,8.554 1.177,9.237L2.237,8.177C2.14,8.079 2.14,7.921 2.237,7.823L1.177,6.763Z" transform="rotate(360 4.5 8)" fill="#7896CE"/>
</svg>
